<svg xmlns="http://www.w3.org/2000/svg" width="436.35052490234375" height="226.1307830810547" viewBox="-257.7627258300781 -74.89381408691406 436.35052490234375 226.1307830810547"><title>Neo4j Graph Visualization</title><desc>Created using Neo4j (http://www.neo4j.com/)</desc><g class="layer relationships"><g class="relationship" transform="translate(-131.3080797100807 -45.89381502761661) rotate(391.96641333623774)"><path class="b-outline" fill="#A5ABB6" stroke="none" d="M 25 0.5 L 40.84149831107011 0.5 L 40.84149831107011 -0.5 L 25 -0.5 Z M 96.63056081107011 0.5 L 112.47205912214022 0.5 L 112.47205912214022 3.5 L 119.47205912214022 0 L 112.47205912214022 -3.5 L 112.47205912214022 -0.5 L 96.63056081107011 -0.5 Z"/><text text-anchor="middle" pointer-events="none" font-size="8px" fill="#000000" x="68.73602956107011" y="3" font-family="Helvetica Neue, Helvetica, Arial, sans-serif">HAS_ORDER</text></g><g class="relationship" transform="translate(117.26574411263344 101.78384243734006) rotate(282.98451832735424)"><path class="b-outline" fill="#A5ABB6" stroke="none" d="M 25 0.5 L 32.75087036278181 0.5 L 32.75087036278181 -0.5 L 25 -0.5 Z M 104.10243286278181 0.5 L 111.85330322556362 0.5 L 111.85330322556362 3.5 L 118.85330322556362 0 L 111.85330322556362 -3.5 L 111.85330322556362 -0.5 L 104.10243286278181 -0.5 Z"/><text text-anchor="middle" pointer-events="none" font-size="8px" fill="#000000" x="68.42665161278181" y="3" font-family="Helvetica Neue, Helvetica, Arial, sans-serif">HAS_ITEM_TYPE</text></g><g class="relationship" transform="translate(-194.76270992760706 88.23696229450145) rotate(295.3179094620941)"><path class="b-outline" fill="#A5ABB6" stroke="none" d="M 25 0.5 L 37.535318795043395 0.5 L 37.535318795043395 -0.5 L 25 -0.5 Z M 103.8478187950434 0.5 L 116.38313759008679 0.5 L 116.38313759008679 3.5 L 123.38313759008679 0 L 116.38313759008679 -3.5 L 116.38313759008679 -0.5 L 103.8478187950434 -0.5 Z"/><text text-anchor="middle" pointer-events="none" font-size="8px" fill="#000000" x="70.6915687950434" y="3" font-family="Helvetica Neue, Helvetica, Arial, sans-serif">HAS_COUNTRY</text></g><g class="relationship" transform="translate(-8.743967631421048 30.59287856911911) rotate(389.4648892300921)"><path class="b-outline" fill="#A5ABB6" stroke="none" d="M 25 0.5 L 25.036577704954937 0.5 L 25.036577704954937 -0.5 L 25 -0.5 Z M 112.69282770495494 0.5 L 112.72940540990987 0.5 L 112.72940540990987 3.5 L 119.72940540990987 0 L 112.72940540990987 -3.5 L 112.72940540990987 -0.5 L 112.69282770495494 -0.5 Z"/><text text-anchor="middle" pointer-events="none" font-size="8px" fill="#000000" x="68.86470270495494" y="3" font-family="Helvetica Neue, Helvetica, Arial, sans-serif">HAS_ORDER_DETAIL</text></g></g><g class="layer nodes"><g class="node" aria-label="graph-node-10" transform="translate(-8.743967631421048,30.59287856911911)"><circle class="b-outline" cx="0" cy="0" r="25" fill="#F16667" stroke="#eb2728" stroke-width="2px"/><text class="caption" text-anchor="middle" pointer-events="none" x="0" y="5" font-size="10px" fill="#FFFFFF" font-family="Helvetica Neue, Helvetica, Arial, sans-serif"> Order</text></g><g class="node" aria-label="graph-node-11" transform="translate(117.26574411263344,101.78384243734006)"><circle class="b-outline" cx="0" cy="0" r="25" fill="#D9C8AE" stroke="#c0a378" stroke-width="2px"/><text class="caption" text-anchor="middle" pointer-events="none" x="0" y="5" font-size="10px" fill="#2A2C34" font-family="Helvetica Neue, Helvetica, Arial, sans-serif"> OrderDe…</text></g><g class="node" aria-label="graph-node-12" transform="translate(149.58782135117752,-38.39124868762246)"><circle class="b-outline" cx="0" cy="0" r="25" fill="#57C7E3" stroke="#23b3d7" stroke-width="2px"/><text class="caption" text-anchor="middle" pointer-events="none" x="0" y="5" font-size="10px" fill="#2A2C34" font-family="Helvetica Neue, Helvetica, Arial, sans-serif"> ItemType</text></g><g class="node" aria-label="graph-node-8" transform="translate(-131.3080797100807,-45.89381502761661)"><circle class="b-outline" cx="0" cy="0" r="25" fill="#C990C0" stroke="#b261a5" stroke-width="2px"/><text class="caption" text-anchor="middle" pointer-events="none" x="0" y="5" font-size="10px" fill="#FFFFFF" font-family="Helvetica Neue, Helvetica, Arial, sans-serif"> Country</text></g><g class="node selected" aria-label="graph-node-9" transform="translate(-194.76270992760706,88.23696229450145)"><circle class="b-outline" cx="0" cy="0" r="25" fill="#F79767" stroke="#f36924" stroke-width="2px"/><text class="caption" text-anchor="middle" pointer-events="none" x="0" y="5" font-size="10px" fill="#FFFFFF" font-family="Helvetica Neue, Helvetica, Arial, sans-serif"> Region</text></g></g></svg>